<svg width="32" height="32" viewBox="0 0 32 32" fill="none" xmlns="http://www.w3.org/2000/svg">
<circle cx="16" cy="16" r="14" fill="#161616"/>
<path d="M16.1542 23.2817C20.1393 23.2817 22.1599 21.2875 22.1599 18.8563C22.1599 15.6602 19.1851 15.0319 16.7716 14.5675C14.9755 14.2397 13.5723 13.9119 13.5723 12.8192C13.5723 12.0817 14.2459 11.4261 15.9297 11.4261C17.5013 11.4261 18.3712 12.027 18.5116 13.0651H21.8512C21.5986 10.6066 19.7183 8.72168 15.9578 8.72168C12.1691 8.72168 10.1766 10.6612 10.1766 12.9558C10.1766 16.07 13.1233 16.7256 15.5649 17.2446C17.4451 17.6271 18.7641 17.9002 18.7641 18.9929C18.7641 19.9217 18.0625 20.5773 16.2384 20.5773C14.4142 20.5773 13.432 19.9217 13.2356 18.7471H9.83984C10.0082 21.4241 12.0849 23.2817 16.1542 23.2817Z" fill="white"/>
</svg>
