<svg width="18" height="18" viewBox="0 0 18 18" fill="none" xmlns="http://www.w3.org/2000/svg">
<g clip-path="url(#clip0_976:2197)">
<path d="M3.70452 11.5795C4.14387 11.1402 4.85616 11.1402 5.29551 11.5795C5.73487 12.0188 5.73487 12.7311 5.29551 13.1705C4.85616 13.6098 4.14387 13.6098 3.70452 13.1705C3.26516 12.7311 3.26516 12.0188 3.70452 11.5795Z" fill="#161616"/>
<path d="M6.11418 4.50628C6.55354 4.06692 7.26582 4.06692 7.70518 4.50628C8.14453 4.94563 8.14453 5.65792 7.70518 6.09727C7.26582 6.53663 6.55354 6.53663 6.11418 6.09727C5.67483 5.65795 5.67483 4.94563 6.11418 4.50628Z" fill="#161616"/>
<path d="M13.0597 10.2943C13.4991 9.85501 14.2114 9.85501 14.6507 10.2943C15.0901 10.7337 15.0901 11.446 14.6507 11.8853C14.2114 12.3247 13.4991 12.3247 13.0597 11.8853C12.6204 11.446 12.6204 10.7337 13.0597 10.2943Z" fill="#161616"/>
<path d="M9.42378 12.4109C9.64344 12.1912 9.99962 12.1912 10.2193 12.4109C10.4389 12.6305 10.4389 12.9867 10.2193 13.2063C9.99962 13.426 9.64344 13.426 9.42378 13.2063C9.20412 12.9867 9.20412 12.6305 9.42378 12.4109Z" fill="#161616"/>
<path d="M8.26631 8.93818C8.48597 8.71852 8.84215 8.71852 9.06181 8.93818C9.28147 9.15784 9.28147 9.51401 9.06181 9.73367C8.84215 9.95333 8.48597 9.95333 8.26631 9.73367C8.04665 9.51398 8.04665 9.15784 8.26631 8.93818Z" fill="#161616"/>
<path d="M3.6357 6.62275C3.85536 6.40309 4.21153 6.40309 4.43119 6.62275C4.65085 6.84241 4.65085 7.19859 4.43119 7.41825C4.21153 7.63791 3.85536 7.63791 3.6357 7.41825C3.41603 7.19859 3.41603 6.84241 3.6357 6.62275Z" fill="#161616"/>
<path d="M0 9.00002C2.16918e-07 13.9625 4.03751 18 9.00002 18C13.9625 18 18 13.9625 18 9.00002C18 8.82809 17.9885 8.65945 17.9704 8.39688C17.9506 8.10411 17.7084 7.87503 17.4145 7.87229C16.5845 7.86405 15.8297 7.39329 15.4452 6.64457C15.3738 6.50614 15.2485 6.40341 15.0986 6.36056C14.9486 6.31772 14.7876 6.33968 14.6542 6.4199C14.291 6.63907 13.9027 6.75004 13.5 6.75004C12.2591 6.75004 11.25 5.74094 11.25 4.50003C11.25 4.09739 11.361 3.70902 11.5802 3.34591C11.6609 3.21242 11.6823 3.05092 11.6395 2.9015C11.5967 2.75153 11.4939 2.62629 11.3555 2.55487C10.6068 2.17035 10.136 1.41558 10.1278 0.585579C10.125 0.292251 9.80148 0.043951 9.50926 0.0230655C9.34062 0.0115318 9.17198 -7.3073e-09 9.00005 1.92696e-10C4.03747 -3.22078e-05 -2.1692e-07 4.03747 0 9.00002ZM9.05 1.12554C9.19557 1.9792 9.66744 2.74384 10.3684 3.26237C10.208 3.65898 10.125 4.07921 10.125 4.49999C10.125 6.36109 11.6389 7.875 13.5 7.875C13.9208 7.875 14.341 7.79204 14.7376 7.63165C15.2562 8.33256 16.0208 8.80444 16.8745 8.95001C16.875 8.96649 16.875 8.9835 16.875 8.99999C16.875 13.3423 13.3424 16.875 9.00002 16.875C4.65765 16.875 1.12499 13.3423 1.12499 9.00002C1.12499 4.65765 4.65765 1.12499 9.00002 1.12499C9.0165 1.12499 9.03355 1.12499 9.05 1.12554Z" fill="#161616"/>
</g>
<defs>
<clipPath id="clip0_976:2197">
<rect width="18" height="18" fill="white"/>
</clipPath>
</defs>
</svg>
