<svg width="266" height="56" viewBox="0 0 266 56" fill="none" xmlns="http://www.w3.org/2000/svg">
<path d="M49.7064 47.8021C47.4861 47.8021 45.4153 47.4392 43.4939 46.7133C41.6152 45.9448 39.9714 44.856 38.5624 43.447C37.1534 42.038 36.0433 40.3087 35.232 38.2593C34.4208 36.1671 34.0151 33.7974 34.0151 31.1502C34.0151 28.503 34.4635 26.1546 35.3601 24.1052C36.2567 22.013 37.4523 20.2624 38.9467 18.8534C40.4838 17.4444 42.2557 16.377 44.2625 15.6511C46.2692 14.8826 48.3614 14.4983 50.539 14.4983C52.503 14.4983 54.2323 14.8185 55.7267 15.459C57.2638 16.0994 58.6301 16.9107 59.8256 17.8927L55.4064 23.9771C53.912 22.7388 52.4817 22.1197 51.1154 22.1197C48.8097 22.1197 46.9951 22.931 45.6715 24.5535C44.3479 26.176 43.6861 28.3749 43.6861 31.1502C43.6861 33.9255 44.3479 36.1244 45.6715 37.7469C47.0378 39.3694 48.7457 40.1807 50.7951 40.1807C51.8199 40.1807 52.8019 39.9672 53.7412 39.5402C54.7233 39.0705 55.6413 38.5155 56.4952 37.875L60.2099 44.0234C58.6301 45.3897 56.9222 46.3717 55.0862 46.9695C53.2502 47.5246 51.4569 47.8021 49.7064 47.8021Z" fill="#161616"/>
<path d="M77.5968 47.8021C75.59 47.8021 73.6473 47.4392 71.7686 46.7133C69.89 45.9448 68.2248 44.856 66.7731 43.447C65.3641 42.038 64.2326 40.3087 63.3786 38.2593C62.5247 36.1671 62.0977 33.7974 62.0977 31.1502C62.0977 28.503 62.5247 26.1546 63.3786 24.1052C64.2326 22.013 65.3641 20.2624 66.7731 18.8534C68.2248 17.4444 69.89 16.377 71.7686 15.6511C73.6473 14.8826 75.59 14.4983 77.5968 14.4983C79.6036 14.4983 81.525 14.8826 83.3609 15.6511C85.2396 16.377 86.8835 17.4444 88.2925 18.8534C89.7442 20.2624 90.897 22.013 91.7509 24.1052C92.6049 26.1546 93.0318 28.503 93.0318 31.1502C93.0318 33.7974 92.6049 36.1671 91.7509 38.2593C90.897 40.3087 89.7442 42.038 88.2925 43.447C86.8835 44.856 85.2396 45.9448 83.3609 46.7133C81.525 47.4392 79.6036 47.8021 77.5968 47.8021ZM77.5968 40.1807C79.5182 40.1807 80.9699 39.3694 81.9519 37.7469C82.934 36.1244 83.425 33.9255 83.425 31.1502C83.425 28.3749 82.934 26.176 81.9519 24.5535C80.9699 22.931 79.5182 22.1197 77.5968 22.1197C75.6327 22.1197 74.1597 22.931 73.1776 24.5535C72.2383 26.176 71.7686 28.3749 71.7686 31.1502C71.7686 33.9255 72.2383 36.1244 73.1776 37.7469C74.1597 39.3694 75.6327 40.1807 77.5968 40.1807Z" fill="#161616"/>
<path d="M113.122 47.8021C111.115 47.8021 109.173 47.4392 107.294 46.7133C105.415 45.9448 103.75 44.856 102.298 43.447C100.889 42.038 99.758 40.3087 98.904 38.2593C98.0501 36.1671 97.6231 33.7974 97.6231 31.1502C97.6231 28.503 98.0501 26.1546 98.904 24.1052C99.758 22.013 100.889 20.2624 102.298 18.8534C103.75 17.4444 105.415 16.377 107.294 15.6511C109.173 14.8826 111.115 14.4983 113.122 14.4983C115.129 14.4983 117.05 14.8826 118.886 15.6511C120.765 16.377 122.409 17.4444 123.818 18.8534C125.27 20.2624 126.422 22.013 127.276 24.1052C128.13 26.1546 128.557 28.503 128.557 31.1502C128.557 33.7974 128.13 36.1671 127.276 38.2593C126.422 40.3087 125.27 42.038 123.818 43.447C122.409 44.856 120.765 45.9448 118.886 46.7133C117.05 47.4392 115.129 47.8021 113.122 47.8021ZM113.122 40.1807C115.044 40.1807 116.495 39.3694 117.477 37.7469C118.459 36.1244 118.95 33.9255 118.95 31.1502C118.95 28.3749 118.459 26.176 117.477 24.5535C116.495 22.931 115.044 22.1197 113.122 22.1197C111.158 22.1197 109.685 22.931 108.703 24.5535C107.764 26.176 107.294 28.3749 107.294 31.1502C107.294 33.9255 107.764 36.1244 108.703 37.7469C109.685 39.3694 111.158 40.1807 113.122 40.1807Z" fill="#161616"/>
<path d="M135.006 47.0336V2.13744H144.164V27.8839H144.421L154.476 15.2668H164.723L153.579 28.3322L165.556 47.0336H155.372L148.199 34.6727L144.164 39.22V47.0336H135.006Z" fill="#161616"/>
<path d="M170.093 47.0336V15.2668H179.508V47.0336H170.093ZM174.769 10.5915C173.189 10.5915 171.887 10.1432 170.862 9.24653C169.837 8.30719 169.325 7.11167 169.325 5.65996C169.325 4.20826 169.837 3.03409 170.862 2.13744C171.887 1.2408 173.189 0.79248 174.769 0.79248C176.391 0.79248 177.694 1.2408 178.676 2.13744C179.7 3.03409 180.213 4.20826 180.213 5.65996C180.213 7.11167 179.7 8.30719 178.676 9.24653C177.694 10.1432 176.391 10.5915 174.769 10.5915Z" fill="#161616"/>
<path d="M202.012 47.8021C199.749 47.8021 197.635 47.4392 195.671 46.7133C193.707 45.9448 191.999 44.856 190.548 43.447C189.096 41.9953 187.964 40.2447 187.153 38.1952C186.342 36.1458 185.936 33.7974 185.936 31.1502C185.936 28.5884 186.363 26.2827 187.217 24.2332C188.071 22.1411 189.181 20.3905 190.548 18.9815C191.957 17.5298 193.558 16.4197 195.351 15.6511C197.144 14.8826 199.002 14.4983 200.923 14.4983C203.186 14.4983 205.15 14.8826 206.815 15.6511C208.523 16.4197 209.932 17.4871 211.042 18.8534C212.195 20.2197 213.049 21.8422 213.604 23.7209C214.159 25.5569 214.437 27.5636 214.437 29.7412C214.437 30.5951 214.394 31.4064 214.309 32.1749C214.223 32.9435 214.138 33.5199 214.052 33.9042H195.031C195.458 36.2098 196.397 37.9177 197.849 39.0278C199.343 40.0953 201.158 40.629 203.293 40.629C205.556 40.629 207.84 39.9245 210.146 38.5155L213.284 44.2155C211.661 45.3257 209.847 46.201 207.84 46.8414C205.876 47.4819 203.933 47.8021 202.012 47.8021ZM194.967 27.6917H206.431C206.431 25.8984 206.025 24.4467 205.214 23.3366C204.403 22.2265 203.037 21.6714 201.115 21.6714C199.621 21.6714 198.297 22.1624 197.144 23.1445C196.034 24.1265 195.308 25.6423 194.967 27.6917Z" fill="#161616"/>
<path d="M230.293 47.8021C228.201 47.8021 226.045 47.3965 223.824 46.5852C221.647 45.774 219.747 44.7066 218.124 43.3829L222.351 37.4907C223.803 38.6009 225.191 39.4334 226.514 39.9885C227.838 40.5436 229.183 40.8211 230.549 40.8211C231.958 40.8211 232.983 40.5863 233.623 40.1166C234.264 39.6469 234.584 38.9851 234.584 38.1312C234.584 37.6188 234.392 37.1705 234.008 36.7862C233.666 36.3593 233.175 35.975 232.535 35.6334C231.937 35.2918 231.254 34.9929 230.485 34.7368C229.717 34.4379 228.927 34.1176 228.115 33.7761C227.133 33.3918 226.151 32.9435 225.169 32.4311C224.187 31.9187 223.291 31.2996 222.479 30.5738C221.668 29.8052 221.006 28.9299 220.494 27.9479C219.982 26.9232 219.725 25.749 219.725 24.4254C219.725 22.9737 220.003 21.6287 220.558 20.3905C221.156 19.1523 221.988 18.1062 223.056 17.2523C224.123 16.3983 225.404 15.7365 226.899 15.2668C228.393 14.7545 230.058 14.4983 231.894 14.4983C234.328 14.4983 236.463 14.9253 238.299 15.7792C240.135 16.5904 241.736 17.5084 243.102 18.5332L238.875 24.1692C237.722 23.3153 236.591 22.6535 235.481 22.1838C234.371 21.7141 233.26 21.4793 232.15 21.4793C229.759 21.4793 228.564 22.3119 228.564 23.9771C228.564 24.4894 228.735 24.9378 229.076 25.322C229.418 25.6636 229.866 25.9838 230.421 26.2827C231.019 26.5816 231.681 26.8805 232.407 27.1794C233.175 27.4355 233.965 27.7131 234.776 28.0119C235.801 28.3962 236.804 28.8445 237.786 29.3569C238.811 29.8266 239.729 30.4243 240.54 31.1502C241.394 31.876 242.077 32.7727 242.59 33.8401C243.102 34.8648 243.358 36.1031 243.358 37.5548C243.358 39.0065 243.081 40.3514 242.526 41.5897C241.971 42.8279 241.138 43.9167 240.028 44.856C238.918 45.7526 237.552 46.4785 235.929 47.0336C234.307 47.5459 232.428 47.8021 230.293 47.8021Z" fill="#161616"/>
<path d="M0.455078 55.9999V50.6841H30.9409V55.9999H0.455078Z" fill="#FFD400"/>
<path d="M257.271 12.1697C259.55 12.1697 260.706 11.0294 260.706 9.63912C260.706 7.81147 259.005 7.45219 257.624 7.18663C256.597 6.99918 255.795 6.81173 255.795 6.18689C255.795 5.76512 256.18 5.39022 257.143 5.39022C258.042 5.39022 258.539 5.73388 258.619 6.32748H260.529C260.385 4.92159 259.31 3.84375 257.159 3.84375C254.993 3.84375 253.853 4.95284 253.853 6.265C253.853 8.04578 255.538 8.42068 256.934 8.71748C258.01 8.93617 258.764 9.09238 258.764 9.71722C258.764 10.2483 258.363 10.6232 257.32 10.6232C256.276 10.6232 255.715 10.2483 255.602 9.57663H253.661C253.757 11.1075 254.944 12.1697 257.271 12.1697Z" fill="#161616"/>
<path fill-rule="evenodd" clip-rule="evenodd" d="M257.183 14.5104C260.775 14.5104 263.688 11.5981 263.688 8.00573C263.688 4.41331 260.775 1.50107 257.183 1.50107C253.591 1.50107 250.678 4.41331 250.678 8.00573C250.678 11.5981 253.591 14.5104 257.183 14.5104ZM257.183 16.0115C261.604 16.0115 265.189 12.4272 265.189 8.00573C265.189 3.58429 261.604 0 257.183 0C252.762 0 249.177 3.58429 249.177 8.00573C249.177 12.4272 252.762 16.0115 257.183 16.0115Z" fill="#161616"/>
</svg>
